<svg width="418" height="464" viewBox="0 0 418 464" fill="none" xmlns="http://www.w3.org/2000/svg">
<path d="M361.898 74.9177L311.586 75.4086C309.221 63.7477 301.276 33.1513 308.431 24.8058C308.758 21.6648 310.281 18.7708 312.683 16.7263C315.086 14.6817 318.184 13.6442 321.331 13.8296C329.129 1.6034 342.118 3.43909 350.897 11.0749C359.732 14.1284 363.063 19.553 361.898 26.9146C368.441 32.6511 369.648 39.6304 366.711 47.575L361.898 74.9177Z" fill="#2F2E41"/>
<path d="M357.142 106.212L320.533 101.138L313.212 90.4255C323.298 83.7281 326.867 74.3737 322.223 61.6708L347.568 61.1069C346.38 72.4191 350.117 81.1777 360.521 86.4788L357.142 106.212Z" fill="#FFB9B9"/>
<path d="M311.371 433.568L309.928 452.79C309.862 453.66 309.989 454.534 310.298 455.353C310.608 456.171 311.094 456.916 311.723 457.536C312.352 458.157 313.11 458.64 313.946 458.952C314.783 459.263 315.678 459.397 316.572 459.345L326.706 458.747C327.175 458.719 327.633 458.591 328.046 458.371C328.459 458.152 328.817 457.846 329.095 457.477C329.373 457.107 329.564 456.682 329.655 456.232C329.746 455.783 329.733 455.319 329.619 454.874L323.994 432.953L311.371 433.568Z" fill="#E0E0E0"/>
<path d="M343.138 432.953L337.512 454.874C337.398 455.319 337.386 455.783 337.477 456.232C337.567 456.682 337.759 457.107 338.037 457.477C338.315 457.846 338.673 458.152 339.086 458.371C339.499 458.591 339.956 458.719 340.426 458.747L350.56 459.345C351.454 459.397 352.349 459.263 353.185 458.952C354.022 458.64 354.78 458.157 355.409 457.536C356.038 456.916 356.524 456.171 356.833 455.352C357.143 454.534 357.269 453.66 357.204 452.79L355.761 433.568L343.138 432.953Z" fill="#E0E0E0"/>
<path d="M356.328 436.253L343.11 434.931L329.952 294.7L324.979 434.479L311.993 434.015L290.107 240.429H373.724L356.328 436.253Z" fill="#E45353"/>
<path d="M336.316 71.0081C350.292 71.0081 361.622 59.6795 361.622 45.705C361.622 31.7304 350.292 20.4019 336.316 20.4019C322.341 20.4019 311.011 31.7304 311.011 45.705C311.011 59.6795 322.341 71.0081 336.316 71.0081Z" fill="#FFB9B9"/>
<path d="M385.827 244.814L283.506 245.93C298.691 188.584 307.774 135.316 291.939 98.6948L317.238 86.4252C329.436 99.047 343.022 97.7458 357.716 85.3098L381.891 91.4446C377.751 139.467 379.606 190.9 385.827 244.814Z" fill="#E45353"/>
<path d="M256 185.825L319.215 210.804L333.348 214.929C333.981 215.113 334.644 215.169 335.298 215.093C335.953 215.016 336.585 214.81 337.157 214.485C337.729 214.16 338.229 213.724 338.626 213.203C339.024 212.681 339.311 212.085 339.471 211.451C339.751 210.339 339.626 209.164 339.116 208.135C338.607 207.106 337.746 206.289 336.688 205.83L322.012 201.367L277.818 175.833L287.048 151.686L267.748 141.417L256 185.825Z" fill="#FFB9B9"/>
<path d="M257.1 139.918C268.927 144.612 278.334 152.621 285.706 163.419L308.811 129.287L292.308 98.5115L257.1 139.918Z" fill="#E45353"/>
<path d="M364.922 41.033C354.551 38.4634 344.354 38.1106 334.442 41.3699C328.127 44.3106 320.545 44.0396 312.112 41.6167V17.1014L357.638 18.2688L364.922 41.033Z" fill="#2F2E41"/>
<path d="M319.494 156.819C317.537 156.821 315.66 157.601 314.276 158.987C312.892 160.374 312.114 162.254 312.112 164.215L315.026 225.331C315.028 227.292 315.806 229.172 317.19 230.559C318.575 231.946 320.451 232.726 322.408 232.728H355.726C357.683 232.726 359.56 231.946 360.944 230.559C362.328 229.172 363.106 227.292 363.109 225.331L366.023 164.215C366.02 162.254 365.242 160.374 363.858 158.987C362.474 157.601 360.597 156.821 358.64 156.819H319.494Z" fill="#3F3D56"/>
<path d="M414.842 181.468L359.531 203.605L355.358 205.276C355.225 205.327 355.092 205.372 354.951 205.417L340.97 209.552C339.183 210.079 336.709 207.659 335.261 205.988C334.545 205.183 334.139 204.147 334.117 203.067C334.095 201.987 334.459 200.935 335.143 200.101C335.336 199.877 335.549 199.671 335.778 199.485C336.317 199.064 336.952 198.783 337.625 198.668L351.591 195.907C352.092 195.808 352.574 195.627 353.016 195.372L359.531 191.557L393.349 171.765C394.29 171.216 395.006 170.348 395.37 169.318C395.734 168.287 395.722 167.16 395.336 166.138L388.881 149.026C388.485 147.979 388.482 146.823 388.872 145.774C389.262 144.725 390.019 143.854 391.001 143.325L401.695 137.564C402.306 137.234 402.984 137.048 403.677 137.02C404.37 136.992 405.06 137.122 405.696 137.401C406.332 137.679 406.896 138.099 407.347 138.629C407.798 139.159 408.123 139.785 408.298 140.459L417.582 176.004C417.867 177.094 417.746 178.251 417.241 179.258C416.737 180.264 415.883 181.05 414.842 181.468Z" fill="#FFB9B9"/>
<path d="M417.733 134.424C405.654 139.116 396.047 147.124 388.519 157.919L364.922 123.796L381.777 91.9106L417.733 134.424Z" fill="#E45353"/>
<path d="M352.549 67.7158C341.75 72.1961 330.427 72.0142 318.641 67.7158C322.07 61.877 316.944 57.3041 314.312 51.41L358.321 50.1056C354.956 55.2259 349.99 61.2755 352.549 67.7158Z" fill="#E0E0E0"/>
<path d="M357.825 51.2057L357.221 50.668L358.074 49.9074L363.173 44.6049L363.822 45.0992L358.701 50.4231L357.825 51.2057Z" fill="#E0E0E0"/>
<path d="M310.701 47.8491L310.23 48.4148L314.646 52.0946L315.117 51.5289L310.701 47.8491Z" fill="#E0E0E0"/>
<path d="M359.468 55.2949L351.738 67.4371L352.359 67.8324L360.089 55.6902L359.468 55.2949Z" fill="#E0E0E0"/>
<path d="M311.512 55.294L310.891 55.6892L318.619 67.8326L319.24 67.4374L311.512 55.294Z" fill="#E0E0E0"/>
<path d="M360.521 189.823V203.761L356.005 205.693C355.861 205.754 355.718 205.805 355.566 205.857L340.434 210.64C338.5 211.25 335.822 208.45 334.255 206.518C333.48 205.587 333.04 204.388 333.017 203.138C332.993 201.889 333.387 200.672 334.128 199.707C334.337 199.448 334.567 199.21 334.815 198.995C335.398 198.507 336.085 198.182 336.813 198.05L351.929 194.855C352.471 194.741 352.992 194.532 353.471 194.237L360.521 189.823Z" fill="#E0E0E0"/>
<path d="M367.123 142.517H364.608C364.608 105.173 357.284 79.1491 350.148 79.1491L349.519 76.5088C355.919 76.5088 360 87.3398 362.296 96.4263C365.408 108.744 367.123 125.113 367.123 142.517Z" fill="#3F3D56"/>
<path d="M306.041 133.716H303.31C303.31 99.1079 311.32 77.6089 323.114 77.6089L322.431 80.2806C314.273 80.2806 306.041 96.8033 306.041 133.716Z" fill="#3F3D56"/>
<path d="M366.022 150.218C369.668 150.218 372.624 147.263 372.624 143.617C372.624 139.972 369.668 137.016 366.022 137.016C362.377 137.016 359.421 139.972 359.421 143.617C359.421 147.263 362.377 150.218 366.022 150.218Z" fill="#3F3D56"/>
<path d="M296.097 149.118H293.408C293.408 140.018 298.837 132.616 305.51 132.616V135.154C300.32 135.154 296.097 141.418 296.097 149.118Z" fill="#3F3D56"/>
<path d="M317.612 149.118H314.923C314.923 141.418 310.7 135.154 305.51 135.154V132.616C312.183 132.616 317.612 140.018 317.612 149.118Z" fill="#3F3D56"/>
<path d="M315.962 152.418C317.481 152.418 318.713 151.187 318.713 149.668C318.713 148.149 317.481 146.917 315.962 146.917C314.443 146.917 313.212 148.149 313.212 149.668C313.212 151.187 314.443 152.418 315.962 152.418Z" fill="#3F3D56"/>
<path d="M294.508 152.418C295.723 152.418 296.708 151.187 296.708 149.668C296.708 148.149 295.723 146.917 294.508 146.917C293.293 146.917 292.307 148.149 292.307 149.668C292.307 151.187 293.293 152.418 294.508 152.418Z" fill="#3F3D56"/>
<path d="M113.338 54.1728L65.3094 62.3054C64.1229 62.5079 62.9036 62.263 61.8873 61.6182C60.871 60.9735 60.13 59.9746 59.8077 58.8151C56.3377 46.2922 49.083 29.9556 56.1266 21.7547C56.4855 18.3047 58.1612 15.1259 60.805 12.8802C63.4488 10.6344 66.8569 9.49479 70.3199 9.69847C78.8998 -3.73083 93.1908 -1.71451 102.85 6.67269C112.571 10.0266 116.236 15.9851 114.954 24.071C119.153 27.7465 121.355 31.8866 121.819 36.4307C122.039 38.9594 121.718 41.506 120.875 43.9005C120.033 46.295 118.69 48.4824 116.935 50.3166L113.338 54.1728Z" fill="#2F2E41"/>
<path d="M105.87 91.9811L68.6377 89.7911C72.2866 81.4169 73.7441 73.3528 72.288 65.7013H100.03C99.9671 71.5762 102.891 81.7386 105.87 91.9811Z" fill="#9F616A"/>
<path d="M61.0527 435.994L59.5256 456.87C59.4565 457.814 59.5902 458.763 59.9178 459.652C60.2454 460.541 60.7594 461.35 61.4252 462.024C62.091 462.698 62.8932 463.222 63.7781 463.561C64.663 463.899 65.6101 464.045 66.5559 463.988L77.2793 463.338C77.7762 463.308 78.2603 463.169 78.6973 462.93C79.1342 462.692 79.5133 462.36 79.8076 461.959C80.1019 461.558 80.3042 461.096 80.4001 460.608C80.496 460.119 80.4831 459.616 80.3624 459.133L74.41 435.326L61.0527 435.994Z" fill="#E0E0E0"/>
<path d="M95.769 435.326L89.8167 459.133C89.696 459.616 89.6831 460.119 89.779 460.608C89.8748 461.096 90.0771 461.558 90.3714 461.959C90.6657 462.36 91.0448 462.692 91.4818 462.93C91.9188 463.169 92.4029 463.308 92.8998 463.338L103.623 463.988C104.569 464.045 105.516 463.899 106.401 463.561C107.286 463.222 108.088 462.698 108.754 462.024C109.42 461.35 109.934 460.541 110.261 459.652C110.589 458.763 110.723 457.814 110.653 456.87L109.126 435.994L95.769 435.326Z" fill="#E0E0E0"/>
<path d="M109.818 438.892L95.3476 437.44L80.9405 283.454L75.4956 436.944L61.2784 436.435L37.3157 223.859H128.866L109.818 438.892Z" fill="#E45353"/>
<path d="M86.891 74.5631C102.161 74.5631 114.54 62.185 114.54 46.9159C114.54 31.6468 102.161 19.2688 86.891 19.2688C71.6207 19.2688 59.2416 31.6468 59.2416 46.9159C59.2416 62.185 71.6207 74.5631 86.891 74.5631Z" fill="#9F616A"/>
<path d="M118.053 33.7085C106.831 31.7543 95.7981 31.486 85.0727 33.9647C78.2406 36.2011 70.0358 35.995 60.9113 34.1523V15.5083L110.172 16.3961L118.053 33.7085Z" fill="#2F2E41"/>
<path d="M105.292 69.0991C93.196 74.13 80.5129 73.9257 67.3113 69.0991C71.1527 62.5427 65.4106 57.4078 62.4627 50.7894L111.757 49.3246C107.987 55.0742 102.425 61.8672 105.292 69.0991Z" fill="#E0E0E0"/>
<path d="M59.0688 47.0138L58.5841 47.5955L63.4325 51.6354L63.9172 51.0537L59.0688 47.0138Z" fill="#E0E0E0"/>
<path d="M112.65 55.1822L104.163 68.5135L104.801 68.92L113.288 55.5886L112.65 55.1822Z" fill="#E0E0E0"/>
<path d="M59.9527 55.1817L59.3141 55.588L67.7992 68.9206L68.4377 68.5143L59.9527 55.1817Z" fill="#E0E0E0"/>
<path d="M34.3253 173.01L13.1537 159.871L31.2094 106.994C33.2231 101.537 37.0803 96.9562 42.114 94.0422L48.1963 90.5211L48.7252 143.864L34.3253 173.01Z" fill="#E45353"/>
<path d="M125.838 198.691L122.706 171.865C122.539 157.705 124.948 144.015 130.692 131.401L133.613 91.9811L101.49 78.8412C101.392 79.4957 101.308 80.1498 101.214 80.8043L86.1591 88.3311L71.4767 84.9945L71.558 80.3012L42.3558 93.4411C52.013 138.334 46.7458 184.954 30.1389 240.02L68.6101 250.538L68.9299 232.067L103.216 229.618C103.569 235.611 103.853 241.497 104.018 247.253C123.364 254.375 124.029 254.257 141.656 244.06C134.636 229.302 129.078 213.945 125.838 198.691Z" fill="#E45353"/>
<path d="M175.226 166.44L155.514 159.871L123.985 123.169L133.612 91.9814L177.416 153.301L175.226 166.44Z" fill="#E45353"/>
<path d="M113.45 194.854C113.773 196.27 114.643 197.499 115.871 198.273C117.099 199.048 118.584 199.304 120 198.985L136.732 195.196L134.314 184.517L117.581 188.305C116.165 188.626 114.934 189.496 114.16 190.724C113.385 191.952 113.13 193.438 113.45 194.854Z" fill="#E0E0E0"/>
<path d="M128.502 182.5L137.993 200.02C153.956 195.568 167.791 181.533 181.066 164.98L177.416 153.301L154.784 159.14L128.502 182.5Z" fill="#E45353"/>
<path d="M4.75787 127.545L22.9775 130.798L64.6226 190.007L42.4988 184.801L4.75787 127.545Z" fill="#E0E0E0"/>
<path d="M1.52634 126.82C1.2487 126.824 0.977283 126.903 0.740475 127.048C0.503666 127.193 0.310164 127.398 0.180205 127.644C0.0502471 127.889 -0.0113912 128.165 0.00173207 128.442C0.0148553 128.72 0.102266 128.988 0.254812 129.22L39.1819 188.277C39.3991 188.608 39.7346 188.842 40.1194 188.932L58.231 193.193C58.5364 193.265 58.8564 193.242 59.1486 193.128C59.4408 193.014 59.6913 192.814 59.8671 192.554C60.0428 192.294 60.1353 191.987 60.1324 191.673C60.1295 191.359 60.0313 191.054 59.8508 190.798L17.1113 130.032C16.9954 129.867 16.848 129.726 16.6775 129.617C16.507 129.509 16.3168 129.435 16.1178 129.4L1.81829 126.846C1.72193 126.829 1.62424 126.82 1.52634 126.82Z" fill="#3F3D56"/>
<path d="M25.8093 169.045L26.8912 179.941L43.9633 178.247C45.4084 178.104 46.7373 177.392 47.6577 176.269C48.5781 175.146 49.0146 173.703 48.8712 172.258C48.7278 170.813 48.0162 169.484 46.8929 168.564C45.7697 167.644 44.3268 167.207 42.8818 167.351L25.8093 169.045Z" fill="#E0E0E0"/>
<path d="M10.9639 167.783C10.9887 171.498 12.481 175.053 15.1158 177.673C17.7505 180.293 21.314 181.766 25.0299 181.77H27.8371L29.8808 164.741L12.9594 158.649L10.9639 167.783Z" fill="#E45353"/>
<path d="M110.408 51.2085L109.873 50.6735L110.681 49.8653L115.51 44.2302L116.084 44.7221L111.236 50.3784L110.408 51.2085Z" fill="#E0E0E0"/>
</svg>
