<svg width="1440" height="888" viewBox="0 0 1440 888" fill="none" xmlns="http://www.w3.org/2000/svg">
<g clip-path="url(#clip0_1_2)">
<rect width="1440" height="888" fill="white"/>
<rect width="1440" height="888" fill="white"/>
<path d="M-281 -0.604034C-281 -0.604034 1490.08 -0.604018 1113.44 -0.604034C736.804 -0.604051 756.014 444.935 524.839 686.331C524.839 686.331 378.307 840.471 113.672 866.516C-150.964 892.562 -281 954.181 -281 954.181V-0.604034Z" fill="#EC9192"/>
<path d="M-263.469 25.891C-263.469 25.891 1430.02 -267.943 1034.09 -135.109C638.161 -2.27463 755.505 339.877 556.749 627.496C556.749 627.496 404.873 814.641 165.06 844.751C-74.7521 874.862 -300.338 979.591 -300.338 979.591L-263.469 25.891Z" fill="#E07A7A"/>
</g>
<defs>
<clipPath id="clip0_1_2">
<rect width="1440" height="888" fill="white"/>
</clipPath>
</defs>
</svg>
