<svg width="390" height="844" viewBox="0 0 390 844" fill="none" xmlns="http://www.w3.org/2000/svg">
<g clip-path="url(#clip0_6_300)">
<rect width="390" height="844" fill="white"/>
<path d="M-378 0C-378 0 934.092 9.82146e-06 655.062 0C376.033 -9.82146e-06 390.265 265.05 219 408.656C219 408.656 110.443 500.354 -85.6103 515.848C-281.664 531.343 -378 568 -378 568V0Z" fill="#EC9192"/>
<path d="M-364.741 52.7676C-364.741 52.7676 878.106 -199.14 584.761 -101.342C291.417 -3.54431 361.862 198.886 205.052 381.993C205.052 381.993 86.6389 502.115 -88.8617 530.813C-264.362 559.511 -432.755 632.85 -432.755 632.85L-364.741 52.7676Z" fill="#E07A7A"/>
</g>
<defs>
<clipPath id="clip0_6_300">
<rect width="390" height="844" fill="white"/>
</clipPath>
</defs>
</svg>
