<svg width="131" height="25" viewBox="0 0 131 25" fill="none" xmlns="http://www.w3.org/2000/svg">
<path d="M6.32422 13.877H3.39453L3.38477 11.7188H5.81641C6.20703 11.7188 6.52279 11.6569 6.76367 11.5332C7.00456 11.403 7.17708 11.2142 7.28125 10.9668C7.39193 10.7194 7.44727 10.4102 7.44727 10.0391C7.44727 9.6224 7.39193 9.28711 7.28125 9.0332C7.17708 8.7793 7.00781 8.59375 6.77344 8.47656C6.53906 8.35938 6.23307 8.30078 5.85547 8.30078H4.50781V20H1.40234V5.78125H5.85547C6.59115 5.78125 7.2487 5.85938 7.82812 6.01562C8.40755 6.17188 8.89909 6.41276 9.30273 6.73828C9.70638 7.0638 10.0156 7.4707 10.2305 7.95898C10.4453 8.44727 10.5527 9.02344 10.5527 9.6875C10.5527 10.2669 10.4388 10.8105 10.2109 11.3184C9.98958 11.8197 9.625 12.2266 9.11719 12.5391C8.61589 12.8516 7.9388 13.0208 7.08594 13.0469L6.32422 13.877ZM6.2168 20H2.57422L3.7168 17.4902H6.2168C6.57487 17.4902 6.85807 17.4154 7.06641 17.2656C7.28125 17.1094 7.43424 16.901 7.52539 16.6406C7.61654 16.3802 7.66211 16.0872 7.66211 15.7617C7.66211 15.3776 7.61979 15.0456 7.53516 14.7656C7.45052 14.4792 7.31055 14.2611 7.11523 14.1113C6.92643 13.9551 6.66276 13.877 6.32422 13.877H3.84375L3.86328 11.7188H6.8125L7.54492 12.5781C8.35221 12.5456 8.99023 12.6855 9.45898 12.998C9.92773 13.304 10.2598 13.7109 10.4551 14.2188C10.6504 14.7201 10.748 15.2474 10.748 15.8008C10.748 16.7253 10.5788 17.5 10.2402 18.125C9.90169 18.7435 9.39388 19.2122 8.7168 19.5312C8.04622 19.8438 7.21289 20 6.2168 20ZM20.7383 17.4902V20H14.791V17.4902H20.7383ZM15.8164 5.78125V20H12.7109V5.78125H15.8164ZM31.8027 11.8066V14.0723C31.8027 15.0814 31.679 15.9701 31.4316 16.7383C31.1842 17.5 30.8294 18.138 30.3672 18.6523C29.9115 19.1667 29.3646 19.554 28.7266 19.8145C28.0951 20.0684 27.3952 20.1953 26.627 20.1953C25.8522 20.1953 25.1458 20.0684 24.5078 19.8145C23.8698 19.554 23.3197 19.1667 22.8574 18.6523C22.3952 18.138 22.0371 17.5 21.7832 16.7383C21.5358 15.9701 21.4121 15.0814 21.4121 14.0723V11.8066C21.4121 10.7845 21.5358 9.88607 21.7832 9.11133C22.0371 8.33008 22.3919 7.68229 22.8477 7.16797C23.3099 6.64714 23.8568 6.25326 24.4883 5.98633C25.1263 5.7194 25.8327 5.58594 26.6074 5.58594C27.3822 5.58594 28.0853 5.7194 28.7168 5.98633C29.3548 6.25326 29.9017 6.64714 30.3574 7.16797C30.8197 7.68229 31.1745 8.33008 31.4219 9.11133C31.6758 9.88607 31.8027 10.7845 31.8027 11.8066ZM28.6875 14.0723V11.7871C28.6875 11.1296 28.6419 10.5697 28.5508 10.1074C28.4661 9.64518 28.3359 9.26758 28.1602 8.97461C27.9844 8.68164 27.7663 8.4668 27.5059 8.33008C27.252 8.19336 26.9525 8.125 26.6074 8.125C26.2559 8.125 25.9499 8.19336 25.6895 8.33008C25.429 8.4668 25.2109 8.68164 25.0352 8.97461C24.8659 9.26758 24.7389 9.64518 24.6543 10.1074C24.5762 10.5697 24.5371 11.1296 24.5371 11.7871V14.0723C24.5371 14.7103 24.5794 15.2572 24.6641 15.7129C24.7487 16.1686 24.8789 16.5397 25.0547 16.8262C25.2305 17.1126 25.4486 17.3242 25.709 17.4609C25.9694 17.5977 26.2754 17.666 26.627 17.666C26.9655 17.666 27.2617 17.5977 27.5156 17.4609C27.776 17.3242 27.9909 17.1126 28.1602 16.8262C28.3359 16.5397 28.4661 16.1686 28.5508 15.7129C28.6419 15.2572 28.6875 14.7103 28.6875 14.0723ZM43.873 11.8066V14.0723C43.873 15.0814 43.7493 15.9701 43.502 16.7383C43.2546 17.5 42.8997 18.138 42.4375 18.6523C41.9818 19.1667 41.4349 19.554 40.7969 19.8145C40.1654 20.0684 39.4655 20.1953 38.6973 20.1953C37.9225 20.1953 37.2161 20.0684 36.5781 19.8145C35.9401 19.554 35.39 19.1667 34.9277 18.6523C34.4655 18.138 34.1074 17.5 33.8535 16.7383C33.6061 15.9701 33.4824 15.0814 33.4824 14.0723V11.8066C33.4824 10.7845 33.6061 9.88607 33.8535 9.11133C34.1074 8.33008 34.4622 7.68229 34.918 7.16797C35.3802 6.64714 35.9271 6.25326 36.5586 5.98633C37.1966 5.7194 37.903 5.58594 38.6777 5.58594C39.4525 5.58594 40.1556 5.7194 40.7871 5.98633C41.4251 6.25326 41.972 6.64714 42.4277 7.16797C42.89 7.68229 43.2448 8.33008 43.4922 9.11133C43.7461 9.88607 43.873 10.7845 43.873 11.8066ZM40.7578 14.0723V11.7871C40.7578 11.1296 40.7122 10.5697 40.6211 10.1074C40.5365 9.64518 40.4062 9.26758 40.2305 8.97461C40.0547 8.68164 39.8366 8.4668 39.5762 8.33008C39.3223 8.19336 39.0228 8.125 38.6777 8.125C38.3262 8.125 38.0202 8.19336 37.7598 8.33008C37.4993 8.4668 37.2812 8.68164 37.1055 8.97461C36.9362 9.26758 36.8092 9.64518 36.7246 10.1074C36.6465 10.5697 36.6074 11.1296 36.6074 11.7871V14.0723C36.6074 14.7103 36.6497 15.2572 36.7344 15.7129C36.819 16.1686 36.9492 16.5397 37.125 16.8262C37.3008 17.1126 37.5189 17.3242 37.7793 17.4609C38.0397 17.5977 38.3457 17.666 38.6973 17.666C39.0358 17.666 39.332 17.5977 39.5859 17.4609C39.8464 17.3242 40.0612 17.1126 40.2305 16.8262C40.4062 16.5397 40.5365 16.1686 40.6211 15.7129C40.7122 15.2572 40.7578 14.7103 40.7578 14.0723ZM49.6348 20H47.0762L47.0957 17.4902H49.6348C50.2272 17.4902 50.696 17.3763 51.041 17.1484C51.3926 16.9206 51.6432 16.5495 51.793 16.0352C51.9492 15.5208 52.0273 14.8372 52.0273 13.9844V11.7871C52.0273 11.1491 51.985 10.6087 51.9004 10.166C51.8158 9.7168 51.679 9.35872 51.4902 9.0918C51.3079 8.81836 51.0638 8.61979 50.7578 8.49609C50.4518 8.36589 50.0742 8.30078 49.625 8.30078H47.0273V5.78125H49.625C50.4518 5.78125 51.2038 5.91797 51.8809 6.19141C52.5579 6.45833 53.1406 6.85221 53.6289 7.37305C54.1172 7.88737 54.4915 8.51562 54.752 9.25781C55.0124 10 55.1426 10.8496 55.1426 11.8066V13.9844C55.1426 14.9349 55.0124 15.7845 54.752 16.5332C54.4915 17.2754 54.1172 17.9036 53.6289 18.418C53.1406 18.9323 52.5579 19.3262 51.8809 19.5996C51.2103 19.8665 50.4616 20 49.6348 20ZM48.8828 5.78125V20H45.7773V5.78125H48.8828ZM61.9688 13.877H59.0391L59.0293 11.7188H61.4609C61.8516 11.7188 62.1673 11.6569 62.4082 11.5332C62.6491 11.403 62.8216 11.2142 62.9258 10.9668C63.0365 10.7194 63.0918 10.4102 63.0918 10.0391C63.0918 9.6224 63.0365 9.28711 62.9258 9.0332C62.8216 8.7793 62.6523 8.59375 62.418 8.47656C62.1836 8.35938 61.8776 8.30078 61.5 8.30078H60.1523V20H57.0469V5.78125H61.5C62.2357 5.78125 62.8932 5.85938 63.4727 6.01562C64.0521 6.17188 64.5436 6.41276 64.9473 6.73828C65.3509 7.0638 65.6602 7.4707 65.875 7.95898C66.0898 8.44727 66.1973 9.02344 66.1973 9.6875C66.1973 10.2669 66.0833 10.8105 65.8555 11.3184C65.6341 11.8197 65.2695 12.2266 64.7617 12.5391C64.2604 12.8516 63.5833 13.0208 62.7305 13.0469L61.9688 13.877ZM61.8613 20H58.2188L59.3613 17.4902H61.8613C62.2194 17.4902 62.5026 17.4154 62.7109 17.2656C62.9258 17.1094 63.0788 16.901 63.1699 16.6406C63.2611 16.3802 63.3066 16.0872 63.3066 15.7617C63.3066 15.3776 63.2643 15.0456 63.1797 14.7656C63.0951 14.4792 62.9551 14.2611 62.7598 14.1113C62.571 13.9551 62.3073 13.877 61.9688 13.877H59.4883L59.5078 11.7188H62.457L63.1895 12.5781C63.9967 12.5456 64.6348 12.6855 65.1035 12.998C65.5723 13.304 65.9043 13.7109 66.0996 14.2188C66.2949 14.7201 66.3926 15.2474 66.3926 15.8008C66.3926 16.7253 66.2233 17.5 65.8848 18.125C65.5462 18.7435 65.0384 19.2122 64.3613 19.5312C63.6908 19.8438 62.8574 20 61.8613 20ZM73.6191 8.54492L70.7676 20H67.457L71.8809 5.78125H73.9414L73.6191 8.54492ZM75.8652 20L73.0039 8.54492L72.6328 5.78125H74.7324L79.1758 20H75.8652ZM75.9727 14.6973V17.207H69.6738V14.6973H75.9727ZM90.4746 5.78125V20H87.4375L83.4141 11.1523V20H80.3867V5.78125H83.4238L87.457 14.6777V5.78125H90.4746ZM95.6992 5.78125V20H92.5938V5.78125H95.6992ZM102.75 5.78125L98.1992 12.9199L95.4062 16.4355L94.8203 13.4277L96.5684 10.3418L98.9609 5.78125H102.75ZM99.0879 20L96.2461 13.5352L98.5996 11.6211L102.75 20H99.0879Z" fill="#AB0101"/>
<path d="M126.109 11.3518L119.595 0.696381L113.558 11.2789C112.153 13.5214 112.03 16.4373 113.507 18.8523C115.605 22.2851 120.127 23.3872 123.608 21.3165C127.087 19.2465 128.207 14.7871 126.109 11.3518Z" fill="#AB0101"/>
</svg>
